<svg width="139" height="40" viewBox="0 0 139 40" fill="none" xmlns="http://www.w3.org/2000/svg">
<path d="M20.578 24.14C19.682 24.14 18.9493 24.014 18.38 23.762C17.8107 23.5007 17.386 23.1413 17.106 22.684C16.8353 22.2173 16.7 21.6853 16.7 21.088V20.85H18.184V21.004C18.184 21.3867 18.2493 21.7087 18.38 21.97C18.52 22.2313 18.7673 22.4273 19.122 22.558C19.4767 22.6887 19.9853 22.754 20.648 22.754C21.3387 22.754 21.824 22.656 22.104 22.46C22.384 22.2547 22.524 21.9373 22.524 21.508C22.524 21.2187 22.482 20.9853 22.398 20.808C22.314 20.6307 22.146 20.486 21.894 20.374C21.6513 20.2527 21.2873 20.1453 20.802 20.052L19.206 19.73C18.6647 19.6273 18.212 19.4687 17.848 19.254C17.484 19.03 17.204 18.7453 17.008 18.4C16.8213 18.0547 16.728 17.6393 16.728 17.154C16.728 16.6873 16.8493 16.2533 17.092 15.852C17.344 15.4413 17.7267 15.11 18.24 14.858C18.7627 14.606 19.4253 14.48 20.228 14.48C21.0867 14.48 21.782 14.6247 22.314 14.914C22.8553 15.2033 23.2473 15.586 23.49 16.062C23.742 16.5287 23.868 17.042 23.868 17.602V17.77H22.37V17.616C22.37 17.224 22.3047 16.902 22.174 16.65C22.0527 16.3887 21.8287 16.1927 21.502 16.062C21.1847 15.922 20.7507 15.852 20.2 15.852C19.5093 15.852 19.01 15.9547 18.702 16.16C18.394 16.3653 18.24 16.6733 18.24 17.084C18.24 17.364 18.2867 17.588 18.38 17.756C18.4827 17.924 18.6553 18.0593 18.898 18.162C19.15 18.2553 19.486 18.3533 19.906 18.456L21.502 18.792C22.0993 18.904 22.58 19.0813 22.944 19.324C23.3173 19.5667 23.5927 19.8653 23.77 20.22C23.9473 20.5653 24.036 20.976 24.036 21.452C24.036 21.9373 23.9147 22.3853 23.672 22.796C23.4293 23.2067 23.0513 23.5333 22.538 23.776C22.034 24.0187 21.3807 24.14 20.578 24.14ZM28.2169 24.14C27.4609 24.14 26.8309 23.9907 26.3269 23.692C25.8229 23.384 25.4495 22.9593 25.2069 22.418C24.9642 21.8673 24.8429 21.2327 24.8429 20.514C24.8429 19.7953 24.9782 19.1653 25.2489 18.624C25.5289 18.0827 25.9209 17.6627 26.4249 17.364C26.9289 17.056 27.5262 16.902 28.2169 16.902C28.8422 16.902 29.3929 17.0233 29.8689 17.266C30.3542 17.4993 30.7275 17.84 30.9889 18.288C31.2595 18.736 31.3949 19.2773 31.3949 19.912C31.3949 20.0987 31.3855 20.2807 31.3669 20.458C31.3575 20.626 31.3435 20.766 31.3249 20.878H25.5569V19.87H30.0929L29.9389 20.01C29.9762 19.5807 29.9295 19.2307 29.7989 18.96C29.6775 18.6893 29.4769 18.4887 29.1969 18.358C28.9262 18.2273 28.5855 18.162 28.1749 18.162C27.4375 18.162 26.9335 18.3487 26.6629 18.722C26.3922 19.086 26.2569 19.59 26.2569 20.234V20.654C26.2569 21.1207 26.3129 21.5173 26.4249 21.844C26.5462 22.1613 26.7515 22.3993 27.0409 22.558C27.3302 22.7167 27.7269 22.796 28.2309 22.796C28.8189 22.796 29.2342 22.7027 29.4769 22.516C29.7195 22.3293 29.8409 22.082 29.8409 21.774V21.662H31.3389V21.788C31.3389 22.264 31.2082 22.6793 30.9469 23.034C30.6855 23.3793 30.3215 23.65 29.8549 23.846C29.3975 24.042 28.8515 24.14 28.2169 24.14ZM38.5501 24H37.1501V22.628L37.1081 22.25V19.576C37.1081 19.0533 36.9821 18.6987 36.7301 18.512C36.4874 18.3253 36.0907 18.232 35.5401 18.232C34.9894 18.232 34.5927 18.33 34.3501 18.526C34.1167 18.722 34.0001 19.0487 34.0001 19.506V19.716H32.5441V19.576C32.5441 19.0533 32.6701 18.5913 32.9221 18.19C33.1834 17.7887 33.5427 17.476 34.0001 17.252C34.4667 17.0187 35.0081 16.902 35.6241 16.902C36.2774 16.902 36.8187 17.0233 37.2481 17.266C37.6774 17.5087 37.9994 17.8447 38.2141 18.274C38.4381 18.694 38.5501 19.1933 38.5501 19.772V24ZM34.5601 24.14C33.9347 24.14 33.4074 23.9813 32.9781 23.664C32.5581 23.3373 32.3481 22.8753 32.3481 22.278C32.3481 21.886 32.4367 21.5593 32.6141 21.298C32.8007 21.0367 33.0667 20.822 33.4121 20.654C33.7574 20.486 34.1774 20.3693 34.6721 20.304L37.2481 19.94V21.004L34.8961 21.354C34.4947 21.41 34.2147 21.494 34.0561 21.606C33.8974 21.718 33.8181 21.9047 33.8181 22.166C33.8181 22.4367 33.9114 22.6327 34.0981 22.754C34.2941 22.8753 34.6114 22.936 35.0501 22.936C35.3861 22.936 35.7081 22.8847 36.0161 22.782C36.3334 22.67 36.5947 22.488 36.8001 22.236C37.0054 21.9747 37.1081 21.6107 37.1081 21.144L37.3041 22.922L37.0801 22.908C36.9494 23.1227 36.7674 23.3233 36.5341 23.51C36.3101 23.6967 36.0347 23.8507 35.7081 23.972C35.3814 24.084 34.9987 24.14 34.5601 24.14ZM41.5099 24H39.9979V17H41.3839V18.946L41.5099 19.016V24ZM41.5099 19.464H41.1599V18.106H41.4539C41.5939 17.7793 41.8225 17.4993 42.1399 17.266C42.4665 17.0233 42.8865 16.902 43.3999 16.902C43.8945 16.902 44.2865 17.0093 44.5759 17.224C44.8745 17.4387 45.0892 17.7233 45.2199 18.078C45.3505 18.4327 45.4159 18.8293 45.4159 19.268V19.73H43.9039V19.45C43.9039 18.9833 43.8245 18.6567 43.6659 18.47C43.5072 18.2833 43.2085 18.19 42.7699 18.19C42.3125 18.19 41.9859 18.288 41.7899 18.484C41.6032 18.6707 41.5099 18.9973 41.5099 19.464ZM49.5046 24.154C48.7766 24.154 48.1606 24 47.6566 23.692C47.1526 23.384 46.7653 22.9593 46.4946 22.418C46.2333 21.8767 46.1026 21.2467 46.1026 20.528C46.1026 19.8093 46.238 19.1793 46.5086 18.638C46.7886 18.0873 47.1853 17.6627 47.6986 17.364C48.212 17.056 48.8326 16.902 49.5606 16.902C50.1766 16.902 50.718 17.0187 51.1846 17.252C51.6513 17.4853 52.0106 17.812 52.2626 18.232C52.524 18.652 52.6546 19.142 52.6546 19.702V19.828H51.1566V19.744C51.1566 19.2307 51.0166 18.8573 50.7366 18.624C50.466 18.3813 50.0413 18.26 49.4626 18.26C48.7906 18.26 48.31 18.4513 48.0206 18.834C47.7406 19.2073 47.6006 19.7673 47.6006 20.514C47.6006 21.27 47.7406 21.8393 48.0206 22.222C48.31 22.5953 48.7906 22.782 49.4626 22.782C50.0413 22.782 50.466 22.6653 50.7366 22.432C51.0166 22.1893 51.1566 21.816 51.1566 21.312V21.228H52.6546V21.354C52.6546 21.8953 52.524 22.3807 52.2626 22.81C52.0013 23.23 51.6326 23.5613 51.1566 23.804C50.69 24.0373 50.1393 24.154 49.5046 24.154ZM60.2885 24H58.7765V19.954C58.7765 19.338 58.6551 18.8947 58.4125 18.624C58.1791 18.344 57.7451 18.204 57.1105 18.204C56.5038 18.204 56.0511 18.3393 55.7525 18.61C55.4631 18.8713 55.3185 19.3333 55.3185 19.996H55.0525L55.0385 18.204H55.3745C55.4865 17.9893 55.6405 17.784 55.8365 17.588C56.0418 17.3827 56.2985 17.2193 56.6065 17.098C56.9238 16.9673 57.2878 16.902 57.6985 16.902C58.3145 16.902 58.8091 17.0233 59.1825 17.266C59.5651 17.4993 59.8451 17.8213 60.0225 18.232C60.1998 18.6427 60.2885 19.1047 60.2885 19.618V24ZM55.3185 24H53.8065V14.62H55.3185V24Z" fill="#626262"/>
<path d="M110 27C114.418 27 118 23.4183 118 19C118 14.5817 114.418 11 110 11C105.582 11 102 14.5817 102 19C102 23.4183 105.582 27 110 27Z" stroke="#626262" stroke-width="2" stroke-linecap="round" stroke-linejoin="round"/>
<path d="M120 29L115.65 24.65" stroke="#626262" stroke-width="2" stroke-linecap="round" stroke-linejoin="round"/>
<rect x="0.5" y="0.5" width="138" height="39" rx="15.5" stroke="black" stroke-opacity="0.7"/>
</svg>
